<svg version="1.2" xmlns="http://www.w3.org/2000/svg" viewBox="0 0 265 265" width="265" height="265"><style>.a{fill:none;stroke:#333;stroke-linecap:round;stroke-linejoin:round;stroke-width:7.4}.b{fill:#333;stroke:#333;stroke-linecap:round;stroke-linejoin:round;stroke-width:7.4}.c{fill:#f29d16;stroke:#333;stroke-linecap:round;stroke-linejoin:round;stroke-width:2.8}.d{fill:#f49f16}</style><path class="a" d="m250.6 173.2l-104.6 58.8-116.4-25.5c-9.3-1.4-15.7-8.6-15.7-19.2 0-10.6 7-19.2 15.7-19.2"/><path class="a" d="m250.6 134.8l-104.6 58.9-116.4-25.6c-9.3-1.3-15.7-8.6-15.7-19.2 0-10.5 7-19.1 15.7-19.1"/><path class="a" d="m86.4 142.2l-56.8-12.4c-9.3-1.4-15.7-8.6-15.7-19.2 0-10.6 7-19.2 15.7-19.2"/><path class="a" d="m250.6 96.5l-104.6 58.8-25.6-5.6"/><path class="b" d="m250.6 58.1l-104.6 58.9-119.2-25.6 107.4-58.8z"/><path class="c" d="m185.5 64.6l-27 15.3-43.3-9.5 27-15.3z"/><path fill-rule="evenodd" class="d" d="m113.6 125.5v41.1l-9.6-10.6-8.7 5.4v-38.9z"/></svg>